<svg width="291" height="308" viewBox="0 0 291 308" fill="none" xmlns="http://www.w3.org/2000/svg">
<rect width="291" height="308" fill="black"/>
<path d="M211.279 70H195.733C193.158 70 191.079 72.077 191.079 74.6486V83.8469H178.404V74.6486C178.404 72.077 176.324 70 173.75 70H155.826C153.252 70 151.172 72.077 151.172 74.6486V83.8469H138.497V74.6486C138.464 72.077 136.385 70 133.81 70H116.217C113.642 70 111.563 72.077 111.563 74.6486V83.8469H98.8879V74.6486C98.8879 72.077 96.7754 70 94.2338 70H78.6541C76.0795 70 74 72.077 74 74.6486V121.135C74 123.706 76.0795 125.783 78.6541 125.783H97.6666L84.6615 232.272C84.3314 235.042 86.477 237.481 89.2826 237.481H200.651C203.457 237.481 205.602 235.042 205.272 232.272L192.267 125.783H211.279C213.854 125.783 215.934 123.706 215.934 121.135V74.6486C215.934 72.077 213.854 70 211.279 70ZM155.232 228.184H134.701V198.018H155.232V228.184ZM195.403 228.184H164.573V193.369C164.573 190.798 162.494 188.72 159.919 188.72H130.047C127.473 188.72 125.393 190.798 125.393 193.369V228.184H94.5639L102.156 165.972H109.384C111.959 165.972 114.038 163.895 114.038 161.323C114.038 158.752 111.959 156.675 109.384 156.675H103.278L104.301 148.4H122.587C125.162 148.4 127.242 146.323 127.242 143.751C127.242 141.18 125.162 139.103 122.587 139.103H105.456L107.074 125.783H182.893L195.403 228.184ZM206.625 116.486H83.3082V79.2972H89.5467V88.4955C89.5467 91.067 91.6262 93.1441 94.2008 93.1441H116.184C118.759 93.1441 120.838 91.067 120.838 88.4955V79.2972H129.123V88.4955C129.123 91.067 131.203 93.1441 133.777 93.1441H155.76C158.335 93.1441 160.414 91.067 160.414 88.4955V79.2972H169.062V88.4955C169.062 91.067 171.142 93.1441 173.717 93.1441H195.7C198.274 93.1441 200.354 91.067 200.354 88.4955V79.2972H206.592V116.486H206.625Z" fill="url(#paint0_linear_40:787)"/>
<defs>
<linearGradient id="paint0_linear_40:787" x1="142.781" y1="70" x2="161.548" y2="235.602" gradientUnits="userSpaceOnUse">
<stop stop-color="#FBFF2E"/>
<stop offset="1" stop-color="#FF9900"/>
</linearGradient>
</defs>
</svg>
