<svg width="731" height="220" viewBox="0 0 731 220" fill="none" xmlns="http://www.w3.org/2000/svg">
<path d="M150.279 31H134.733C132.158 31 130.079 33.077 130.079 35.6486V44.8469H117.404V35.6486C117.404 33.077 115.324 31 112.75 31H94.8264C92.2518 31 90.1723 33.077 90.1723 35.6486V44.8469H77.4973V35.6486C77.4643 33.077 75.3848 31 72.8102 31H55.217C52.6424 31 50.5629 33.077 50.5629 35.6486V44.8469H37.8879V35.6486C37.8879 33.077 35.7754 31 33.2338 31H17.6541C15.0795 31 13 33.077 13 35.6486V82.1345C13 84.7061 15.0795 86.7831 17.6541 86.7831H36.6666L23.6615 193.272C23.3314 196.042 25.477 198.481 28.2826 198.481H139.651C142.457 198.481 144.602 196.042 144.272 193.272L131.267 86.7831H150.279C152.854 86.7831 154.934 84.7061 154.934 82.1345V35.6486C154.934 33.077 152.854 31 150.279 31ZM94.2322 189.184H73.7014V159.018H94.2322V189.184ZM134.403 189.184H103.573V154.369C103.573 151.798 101.494 149.72 98.9193 149.72H69.0473C66.4727 149.72 64.3932 151.798 64.3932 154.369V189.184H33.5639L41.1557 126.972H48.3844C50.959 126.972 53.0385 124.895 53.0385 122.323C53.0385 119.752 50.959 117.675 48.3844 117.675H42.2779L43.3012 109.4H61.5875C64.1621 109.4 66.2416 107.323 66.2416 104.751C66.2416 102.18 64.1621 100.103 61.5875 100.103H44.4564L46.0738 86.7831H121.893L134.403 189.184ZM145.625 77.4859H22.3082V40.2972H28.5467V49.4955C28.5467 52.067 30.6262 54.1441 33.2008 54.1441H55.184C57.7586 54.1441 59.8381 52.067 59.8381 49.4955V40.2972H68.123V49.4955C68.123 52.067 70.2025 54.1441 72.7771 54.1441H94.7604C97.335 54.1441 99.4145 52.067 99.4145 49.4955V40.2972H108.062V49.4955C108.062 52.067 110.142 54.1441 112.717 54.1441H134.7C137.274 54.1441 139.354 52.067 139.354 49.4955V40.2972H145.592V77.4859H145.625Z" fill="url(#paint0_linear_71_785)"/>
<rect x="219" width="8" height="220" fill="url(#paint1_linear_71_785)"/>
<path d="M330.136 165.72C323.416 165.72 317.128 164.376 311.272 161.688C305.416 159 300.232 155.304 295.72 150.6C291.304 145.8 287.848 140.232 285.352 133.896C282.856 127.56 281.608 120.696 281.608 113.304C281.608 106.296 282.856 99.72 285.352 93.576C287.848 87.336 291.352 81.864 295.864 77.16C300.376 72.456 305.656 68.76 311.704 66.072C317.752 63.384 324.328 62.04 331.432 62.04C340.936 62.04 349.144 64.104 356.056 68.232C362.968 72.264 368.152 77.64 371.608 84.36L356.776 95.304C354.184 90.312 350.536 86.472 345.832 83.784C341.224 81 336.184 79.608 330.712 79.608C324.952 79.608 319.864 81.192 315.448 84.36C311.128 87.528 307.72 91.704 305.224 96.888C302.824 102.072 301.624 107.736 301.624 113.88C301.624 120.312 302.92 126.12 305.512 131.304C308.104 136.488 311.656 140.616 316.168 143.688C320.776 146.664 326.008 148.152 331.864 148.152C341.752 148.152 350.68 143.496 358.648 134.184V126.984H338.056V112.44H375.064V165H358.648V153.48C350.392 161.64 340.888 165.72 330.136 165.72ZM390.128 79.032V59.88H409.424V79.032H390.128ZM390.128 165V89.544H409.424V165H390.128ZM426.687 59.88H445.983V140.808C445.983 144.36 446.559 146.712 447.711 147.864C448.863 149.016 450.447 149.592 452.463 149.592C453.999 149.592 455.583 149.4 457.215 149.016C458.847 148.632 460.287 148.152 461.535 147.576L464.127 162.264C461.535 163.512 458.511 164.472 455.055 165.144C451.599 165.816 448.479 166.152 445.695 166.152C439.647 166.152 434.943 164.568 431.583 161.4C428.319 158.136 426.687 153.528 426.687 147.576V59.88ZM467.926 127.272C467.926 120.072 469.366 113.496 472.246 107.544C475.126 101.592 479.11 96.888 484.198 93.432C489.286 89.976 495.094 88.248 501.622 88.248C507.19 88.248 512.182 89.64 516.598 92.424C521.11 95.112 524.614 98.568 527.11 102.792V59.88H546.406V143.4C546.406 145.512 546.742 147 547.414 147.864C548.086 148.632 549.238 149.112 550.87 149.304V165C547.414 165.672 544.678 166.008 542.662 166.008C539.206 166.008 536.326 165.144 534.022 163.416C531.814 161.688 530.566 159.432 530.278 156.648L529.99 151.896C527.206 156.6 523.414 160.2 518.614 162.696C513.91 165.192 508.966 166.44 503.782 166.44C496.774 166.44 490.582 164.712 485.206 161.256C479.83 157.704 475.606 153 472.534 147.144C469.462 141.192 467.926 134.568 467.926 127.272ZM527.11 137.352V119.352C525.574 115.128 522.934 111.624 519.19 108.84C515.446 106.056 511.606 104.664 507.67 104.664C503.734 104.664 500.278 105.768 497.302 107.976C494.326 110.088 492.022 112.92 490.39 116.472C488.758 119.928 487.942 123.672 487.942 127.704C487.942 131.832 488.854 135.624 490.678 139.08C492.502 142.44 494.95 145.128 498.022 147.144C501.19 149.064 504.79 150.024 508.822 150.024C512.47 150.024 516.07 148.824 519.622 146.424C523.27 144.024 525.766 141 527.11 137.352ZM600.339 166.44C592.179 166.44 585.123 164.664 579.171 161.112C573.315 157.56 568.755 152.856 565.491 147C562.227 141.048 560.595 134.616 560.595 127.704C560.595 120.6 562.179 114.072 565.347 108.12C568.611 102.072 573.219 97.272 579.171 93.72C585.123 90.072 592.227 88.248 600.483 88.248C608.739 88.248 615.795 90.072 621.651 93.72C627.507 97.272 631.971 102.024 635.043 107.976C638.211 113.832 639.795 120.168 639.795 126.984C639.795 129.48 639.651 131.64 639.363 133.464H581.043C581.523 139.32 583.683 143.928 587.523 147.288C591.459 150.648 595.971 152.328 601.059 152.328C604.899 152.328 608.499 151.416 611.859 149.592C615.315 147.672 617.667 145.176 618.915 142.104L635.475 146.712C632.691 152.472 628.227 157.224 622.083 160.968C615.939 164.616 608.691 166.44 600.339 166.44ZM580.611 121.224H620.067C619.491 115.56 617.331 111 613.587 107.544C609.939 103.992 605.475 102.216 600.195 102.216C595.011 102.216 590.547 103.992 586.803 107.544C583.155 111 581.091 115.56 580.611 121.224ZM696.478 106.248C690.622 106.248 685.39 107.4 680.782 109.704C676.174 111.912 672.862 115.128 670.846 119.352V165H651.55V89.544H669.262V105.672C671.854 100.488 675.214 96.408 679.342 93.432C683.566 90.456 687.982 88.824 692.59 88.536C694.606 88.536 695.902 88.584 696.478 88.68V106.248Z" fill="url(#paint2_linear_71_785)"/>
<defs>
<linearGradient id="paint0_linear_71_785" x1="81.7806" y1="31" x2="100.548" y2="196.602" gradientUnits="userSpaceOnUse">
<stop stop-color="#FBFB2C"/>
<stop offset="1" stop-color="#FF9900"/>
</linearGradient>
<linearGradient id="paint1_linear_71_785" x1="222.877" y1="-1.65192e-06" x2="295.839" y2="27.6256" gradientUnits="userSpaceOnUse">
<stop stop-color="#FBFB2C"/>
<stop offset="1" stop-color="#FF9900"/>
</linearGradient>
<linearGradient id="paint2_linear_71_785" x1="481.5" y1="30" x2="488" y2="199" gradientUnits="userSpaceOnUse">
<stop stop-color="#FBFB2C"/>
<stop offset="1" stop-color="#FF9900"/>
</linearGradient>
</defs>
</svg>
