<svg width="413" height="77" viewBox="0 0 413 77" fill="none" xmlns="http://www.w3.org/2000/svg">
<path d="M14.317 34.814V13.905H25.544C32.651 13.905 36.977 17.922 36.977 24.411C36.977 30.694 32.651 34.814 25.544 34.814H14.317ZM27.295 47.071C41.715 47.071 51.294 37.595 51.294 24.308C51.294 11.124 41.715 1.545 27.295 1.545H0V74.572H14.214V47.071H27.295Z" fill="white"/>
<path d="M74.4288 44.805C74.7378 39.243 78.1368 34.917 83.9048 34.917C90.4968 34.917 93.2778 39.346 93.2778 45.011V74.572H106.977V42.642C106.977 31.518 101.003 22.557 88.1278 22.557C83.2868 22.557 77.7248 24.205 74.4288 28.119V0H60.7298V74.572H74.4288V44.805Z" fill="white"/>
<path d="M117.79 60.77C117.79 68.701 124.382 76.014 135.197 76.014C142.716 76.014 147.557 72.512 150.132 68.495C150.132 70.452 150.338 73.233 150.647 74.572H163.213C162.904 72.821 162.595 69.216 162.595 66.538V41.612C162.595 31.415 156.621 22.351 140.553 22.351C126.957 22.351 119.644 31.106 118.82 39.037L130.974 41.612C131.386 37.183 134.682 33.372 140.656 33.372C146.424 33.372 149.205 36.359 149.205 39.964C149.205 41.715 148.278 43.157 145.394 43.569L132.931 45.423C124.485 46.659 117.79 51.706 117.79 60.77ZM138.081 65.817C133.652 65.817 131.489 62.933 131.489 59.946C131.489 56.032 134.27 54.075 137.772 53.56L149.205 51.809V54.075C149.205 63.036 143.849 65.817 138.081 65.817Z" fill="white"/>
<path d="M190.103 45.423C190.103 39.552 193.605 34.917 199.579 34.917C206.171 34.917 208.952 39.346 208.952 45.011V74.572H222.651V42.642C222.651 31.518 216.883 22.557 204.317 22.557C198.858 22.557 192.781 24.926 189.691 30.179V23.896H176.404V74.572H190.103V45.423Z" fill="white"/>
<path d="M253.446 8.755H241.086V15.862C241.086 20.394 238.614 23.896 233.258 23.896H230.683V36.05H239.85V59.637C239.85 69.422 246.03 75.293 255.918 75.293C259.935 75.293 262.407 74.572 263.643 74.057V62.727C262.922 62.933 261.068 63.139 259.42 63.139C255.506 63.139 253.446 61.697 253.446 57.268V36.05H263.643V23.896H253.446V8.755Z" fill="white"/>
<path d="M297.54 63.654C290.845 63.654 284.665 58.71 284.665 49.234C284.665 39.655 290.845 34.814 297.54 34.814C304.235 34.814 310.415 39.655 310.415 49.234C310.415 58.813 304.235 63.654 297.54 63.654ZM297.54 22.351C282.399 22.351 270.966 33.578 270.966 49.234C270.966 64.787 282.399 76.117 297.54 76.117C312.681 76.117 324.114 64.787 324.114 49.234C324.114 33.578 312.681 22.351 297.54 22.351Z" fill="white"/>
<path d="M348.626 74.572V44.908C348.626 39.346 352.128 34.917 358.102 34.917C364.282 34.917 367.063 39.037 367.063 44.496V74.572H380.659V44.908C380.659 39.449 384.161 34.917 390.032 34.917C396.315 34.917 398.993 39.037 398.993 44.496V74.572H412.28V41.715C412.28 28.119 403.319 22.454 393.946 22.454C387.251 22.454 381.895 24.72 377.878 30.9C375.303 25.441 369.741 22.454 362.84 22.454C357.278 22.454 350.789 25.132 348.008 30.076V23.896H334.927V74.572H348.626Z" fill="white"/>
</svg>
